<svg width="445" height="445" viewBox="0 0 445 445" fill="none" xmlns="http://www.w3.org/2000/svg">
<path d="M0 50C0 22.3858 22.3858 0 50 0H395C422.614 0 445 22.3858 445 50V395C445 422.614 422.614 445 395 445H50C22.3858 445 0 422.614 0 395V50Z" fill="#11102F"/>
<path d="M57.585 37.5H77.935V148.5H111.42V167H57.585V37.5Z" fill="#FFFEFE"/>
<path d="M121.179 37.5H176.679V56H141.529V90.225H169.464V108.725H141.529V148.5H176.679V167H121.179V37.5Z" fill="#FFFEFE"/>
<path d="M204.111 37.5H231.676L252.766 167H232.416L228.716 141.285V141.655H205.591L201.891 167H183.021L204.111 37.5ZM226.311 124.08L217.246 60.07H216.876L207.996 124.08H226.311Z" fill="#FFFEFE"/>
<path d="M262.639 37.5H292.794C303.277 37.5 310.924 39.9667 315.734 44.9C320.544 49.71 322.949 57.1717 322.949 67.285V75.24C322.949 88.6833 318.509 97.1933 309.629 100.77V101.14C314.562 102.62 318.015 105.642 319.989 110.205C322.085 114.768 323.134 120.873 323.134 128.52V151.275C323.134 154.975 323.257 157.997 323.504 160.34C323.75 162.56 324.367 164.78 325.354 167H304.634C303.894 164.903 303.4 162.93 303.154 161.08C302.907 159.23 302.784 155.9 302.784 151.09V127.41C302.784 121.49 301.797 117.358 299.824 115.015C297.974 112.672 294.705 111.5 290.019 111.5H282.989V167H262.639V37.5ZM290.389 93C294.459 93 297.48 91.9517 299.454 89.855C301.55 87.7583 302.599 84.2433 302.599 79.31V69.32C302.599 64.6333 301.735 61.2417 300.009 59.145C298.405 57.0483 295.815 56 292.239 56H282.989V93H290.389Z" fill="#FFFEFE"/>
<path d="M337.253 37.5H362.783L382.578 115.015H382.948V37.5H401.078V167H380.173L355.753 72.465H355.383V167H337.253V37.5Z" fill="#FFFEFE"/>
<path d="M54.8125 303.928L54.7908 294.918L100.511 290.643L100.51 290.473L54.7697 286.163L54.7451 275.963L100.464 271.433L100.464 271.263L54.724 267.208L54.7046 259.133L114.219 265.025L114.247 276.67L74.1374 281.017L74.1378 281.187L114.268 285.34L114.298 297.75L54.8125 303.928Z" fill="#636384"/>
<path d="M54.6932 254.404L54.6707 245.054L114.17 244.911L114.193 254.261L54.6932 254.404Z" fill="#636384"/>
<path d="M63.1361 230.721L63.1597 240.496L54.6597 240.516L54.5901 211.616L63.0901 211.596L63.1136 221.371L114.113 221.248L114.136 230.598L63.1361 230.721Z" fill="#636384"/>
<path d="M54.5792 207.09L54.5567 197.74L78.7816 197.681L78.7574 187.651L54.5325 187.71L54.51 178.36L114.01 178.216L114.032 187.566L87.2574 187.631L87.2816 197.661L114.056 197.596L114.079 206.946L54.5792 207.09Z" fill="#636384"/>
<path d="M124.53 177H176.34L199.44 342.33H200.1L223.2 177H275.01V408H240.69V233.1H240.03L213.63 408H183.27L156.87 233.1H156.21V408H124.53V177Z" fill="#FF526D"/>
<path d="M302.098 177H401.098V210H338.398V271.05H388.228V304.05H338.398V375H401.098V408H302.098V177Z" fill="#FF526D"/>
</svg>
